<svg fill="#5998c5" xmlns="http://www.w3.org/2000/svg" viewBox="-95.38 -95.38 667.68 667.68" width="64px" height="64px"
     transform="rotate(90)">
    <g>
        <path
            d="M399.135,0L90.503,308.633l77.781,77.782L476.917,77.783L399.135,0z M434.491,77.783l-160.14,160.14l-35.355-35.355 l160.14-160.141L434.491,77.783z M132.928,308.633l84.853-84.853l35.355,35.355l-84.853,84.853L132.928,308.633z"/>
        <rect x="0.001" y="321.917" width="50" height="30"/>
        <rect x="125" y="426.917" width="30" height="50"/>
        <path
            d="M65.753,283.887l-35.355-35.355l21.213-21.213l35.355,35.355L65.753,283.887z M228.39,446.524l-35.355-35.355 l21.213-21.213l35.355,35.355L228.39,446.524z M51.606,446.519l-21.213-21.213l35.355-35.355l21.213,21.213L51.606,446.519z"/>
    </g>
</svg>